PathFileType	4	(X/Y/Z)	C:/Users/beibeiliu/ov580/test_trc\sequence.17_training_dense_left.trc
DataRate	CameraRate	NumFrames	NumMarkers	Units	OrigDataRate	OrigDataStartFrame	OrigNumFrames
120	120	10	19	mm	120	53	78
Frame#	Time	ThumbCMC			ThumbMCP			ThumbIP			ThumbTip			IndexMCP			IndexPIP			IndexTip			MiddleMCP			MiddlePIP			MiddleTip			RingMCP			RingPIP			RingTip			PinkyMCP			PinkyPIP			PinkyTip			BackHand1			BackHand2			BackHand3	
		X0	Y0	Z0	X1	Y1	Z1	X2	Y2	Z2	X3	Y3	Z3	X4	Y4	Z4	X5	Y5	Z5	X6	Y6	Z6	X7	Y7	Z7	X8	Y8	Z8	X9	Y9	Z9	X10	Y10	Z10	X11	Y11	Z11	X12	Y12	Z12	X13	Y13	Z13	X14	Y14	Z14	X15	Y15	Z15	X16	Y16	Z16	X17	Y17	Z17	X18	Y18	Z18	
52	0.433333	-196.535	40.6132	21.9491	-196.721	68.965	18.4174	-185.027	94.9362	6.02388	-170.045	109.896	4.76512	-159.496	69.4891	-22.0557	-153.286	95.4795	-11.9095	-159.287	96.7339	17.9592	-134.779	59.1012	-25.2536	-127.267	75.0899	-35.5641	-113.334	97.7507	-44.1062	-122.037	46.2391	-5.8966	-108.111	61.4617	-19.5662	-91.8824	73.6502	-27.3054	-112.573	37.3916	15.0562	-95.6601	45.4407	8.18422	-77.8532	44.8667	2.0456	-150.167	19.9332	12.6237	-161.656	0.431426	31.7734	-177.878	18.7824	6.18222	
53	0.441667	-191.713	30.5751	21.4492	-192.335	59.3442	4.21345	-186.364	79.3247	-9.83865	-173.462	93.497	-15.9851	-160.48	49.7732	-33.9466	-158.064	79.481	-31.1721	-162.499	88.9269	-6.4495	-138.384	40.8803	-38.6317	-127.706	55.2564	-55.4677	-116.987	72.3417	-69.4694	-121.492	36.2693	-21.7037	-107.569	46.3765	-34.0663	-98.382	54.9617	-48.7378	-108.22	34.4258	2.09774	-93.7131	42.4198	-7.62627	-78.7699	42.4265	-14.7593	-139.06	9.59536	15.4856	-149.077	-0.384918	33.63	-169.266	7.43161	7.96629	
54	0.45	-185.667	22.4413	15.6488	-188.13	44.2157	-1.44281	-185.65	59.2568	-22.5928	-174.079	71.7772	-35.1559	-161.396	25.2778	-41.6128	-160.093	56.4617	-46.3528	-162.018	70.3845	-25.2632	-135.693	12.6525	-41.5185	-131.732	21.6256	-66.8736	-124.044	31.8689	-88.3421	-118.459	15.2648	-25.6636	-106.684	19.4641	-47.3849	-102.496	22.8493	-64.7358	-103.58	21.9582	-8.69866	-92.3785	26.0855	-19.9766	-79.2064	26.8176	-31.9653	-133.901	1.35123	13.4358	-140.855	-0.826687	38.7994	-164.535	-1.77211	14.0187	
55	0.458333	-183.638	18.27	17.6678	-188.452	35.5709	-8.79637	-184.336	42.8096	-28.8863	-178.706	53.5159	-50.574	-166.859	1.87419	-39.7904	-164.321	28.6152	-54.0002	-162.81	50.8018	-36.6388	-145.705	-11.4852	-40.0186	-142.213	-11.3095	-66.528	-133.068	-7.0777	-86.707	-128.937	-7.56716	-25.6297	-116.855	-11.8911	-51.5485	-113.278	-13.2672	-67.9742	-107.458	3.63459	-11.636	-100.215	3.24537	-26.092	-82.3725	1.02225	-40.962	-139.548	-6.00541	15.4294	-144.51	-4.46022	38.368	-166.098	-9.80314	22.7577	
56	0.466667	-190.846	21.1393	17.7812	-194.31	34.7274	-9.25414	-193.559	38.1102	-32.5866	-186.813	42.7003	-52.7038	-183.16	-8.61221	-36.298	-178.739	12.0688	-54.7154	-172.353	36.7997	-45.6346	-162.062	-26.5484	-34.1226	-158.492	-30.3519	-59.859	-151.879	-30.8352	-84.3373	-143.588	-21.8422	-20.0935	-136.836	-33.5017	-45.2889	-137.334	-40.1416	-64.5838	-124.246	-11.565	-9.01457	-115.547	-17.5477	-24.2242	-101.764	-26.1987	-39.5669	-145.857	-13.3048	17.3037	-149.232	-3.66552	45.6302	-176.997	-7.07176	24.8116	
57	0.475	-194.567	33.1317	23.7373	-196.211	40.6027	-5.2477	-194.673	37.9093	-31.4362	-190.504	37.8674	-50.8612	-202.089	-7.42573	-29.8035	-191.754	4.65221	-50.9443	-179.325	29.7703	-46.9871	-185.572	-29.7984	-23.2933	-186.311	-36.7713	-44.658	-182.908	-41.2734	-75.0459	-168.333	-32.1799	-14.0155	-169.465	-45.0245	-32.3497	-169.787	-52.4101	-48.7921	-143.173	-24.0209	-2.52839	-136.045	-37.4423	-17.4487	-131.854	-50.0236	-27.3831	-162.367	-10.2233	25.3038	-165.887	1.46308	48.332	-188.95	1.91448	34.3764	
58	0.483333	-200.748	46.342	24.3934	-199.332	47.4331	-5.53455	-201.886	45.4972	-27.5195	-200.113	39.1908	-51.19	-220.549	-0.39165	-18.7348	-211.54	4.53212	-44.7978	-188.307	26.8613	-47.1888	-209.066	-22.4939	-12.5059	-215.033	-33.0024	-40.1693	-215.73	-39.9136	-64.7736	-192.159	-28.8438	-1.42483	-199.035	-45.5781	-20.8018	-204.321	-53.7541	-35.6169	-167.297	-29.7363	6.22683	-169.073	-43.8516	-5.57207	-168.692	-62.2132	-16.5791	-184.548	-6.22783	29.4583	-175.054	7.69022	52.9092	-201.144	11.7774	38.5474	
59	0.491667	-201.758	56.01	25.3975	-202.196	54.6362	-5.26748	-206.46	51.2239	-27.2307	-207.397	41.9957	-48.8442	-239.898	16.4436	-18.0954	-228.329	20.6094	-43.0306	-205.01	26.7613	-46.6894	-236.312	-11.4094	-8.00184	-245.309	-17.746	-28.3709	-246.167	-28.5521	-53.7881	-222.193	-22.2418	4.11038	-235.585	-34.0435	-12.8897	-244.399	-46.7471	-28.8923	-196.301	-25.7565	12.9754	-204.944	-46.4188	2.33789	-211.505	-57.6898	-4.91578	-198.293	-1.23231	37.5333	-189.133	10.0092	56.1924	-214.996	26.9687	41.8147	
60	0.5	-200.48	61.1903	26.7765	-201.529	60.5243	-3.15393	-208.354	59.1271	-29.9602	-211.293	50.8307	-46.8729	-247.644	35.9577	-10.9482	-239.09	33.5554	-39.181	-207.617	34.265	-44.4644	-256.484	14.151	-5.21459	-266.37	6.35402	-25.0992	-276.357	1.29733	-53.6136	-245.298	-4.75301	6.90721	-262.096	-14.4762	-8.3163	-275.219	-17.6768	-22.2403	-225.287	-15.8774	14.5096	-237.595	-30.7773	8.44187	-251.239	-41.883	5.18794	-219.644	8.13336	35.0234	-201.549	16.2862	56.8973	-219.103	33.0219	42.6308	
61	0.508333	-195.703	62.1973	25.2617	-193.988	64.37	-4.76357	-198.68	64.7418	-27.9731	-205.345	59.0347	-51.0916	-248	52.6365	-12.3411	-237.81	48.8586	-40.7028	-208.666	44.5019	-43.4661	-263.891	35.6862	-8.0547	-276.946	32.5587	-30.0446	-286.527	31.5909	-53.9594	-257.596	12.5767	5.77181	-278.256	14.1628	-8.33433	-294.772	10.6437	-22.4614	-245.214	-5.46643	14.5915	-262.85	-9.98474	8.02441	-278.977	-13.1309	3.2428	-230.653	16.0135	32.8155	-213.37	18.4074	52.6558	-221.683	46.7347	44.1323	
